<svg preserveAspectRatio="xMinYMin" enable-background="new 0 0 1213 656.4" viewBox="0 0 1213 656.4" xmlns="http://www.w3.org/2000/svg" xmlns:xlink="http://www.w3.org/1999/xlink"><linearGradient id="a" gradientUnits="userSpaceOnUse" x1="613.027" x2="613.027" y1="25.7709" y2="594.6024"><stop offset=".289" stop-color="#edf6e3"/><stop offset="1" stop-color="#edf6e3" stop-opacity="0"/></linearGradient><clipPath id="b"><circle cx="172.1" cy="627.4" r="7"/></clipPath><clipPath id="c"><path d="m-236.9 248.4h1024v436h-1024z"/></clipPath><clipPath id="d"><path d="m180.9 627.7c-.2 5.6-2.6 7.6-7 8.6-1.3.3-2.6.3-3.9.2-3.3-.3-6.2-3-6.8-6.2-.6-3.6 1.6-8.8 4.6-10.7 2.8-1.8 6.2-1.5 9.1.4 3 2 3.9 4.8 4 7.7m-2.7.2c.1-5.1-4.3-7.4-8.5-5.4-2.3 1.1-4 5.2-3.3 7.6.7 2.5 3.5 4.2 6 3.5 1.3-.4 2.5-1.2 3.7-1.8 1.7-.7 2.1-2.1 2.1-3.9"/></clipPath><clipPath id="e"><path d="m-236.9 248.4h1024v436h-1024z"/></clipPath><clipPath id="f"><path d="m171.7 625.4c1.3 0 2.4 1.1 2.4 2.5 0 1.2-1.2 2.5-2.4 2.5-1.1 0-2.6-1.6-2.6-2.8.1-.9 1.4-2.1 2.6-2.2"/></clipPath><clipPath id="g"><path d="m-236.9 248.4h1024v436h-1024z"/></clipPath><clipPath id="h"><circle cx="15.5" cy="642.6" r="7"/></clipPath><clipPath id="i"><path d="m-393.5 263.5h1024v436h-1024z"/></clipPath><clipPath id="j"><path d="m24.2 642.8c-.2 5.6-2.6 7.6-7 8.6-1.3.3-2.6.3-3.9.2-3.3-.3-6.2-3-6.8-6.2-.6-3.7 1.6-8.8 4.6-10.7 2.8-1.8 6.2-1.5 9.1.4 3 2 3.9 4.9 4 7.7m-2.7.3c.1-5.1-4.3-7.4-8.5-5.4-2.3 1.1-4 5.2-3.3 7.5.7 2.5 3.5 4.2 6 3.5 1.3-.4 2.5-1.2 3.7-1.8 1.8-.7 2.1-2 2.1-3.8"/></clipPath><clipPath id="k"><path d="m-393.5 263.5h1024v436h-1024z"/></clipPath><clipPath id="l"><path d="m15 640.6c1.3 0 2.4 1.1 2.4 2.5 0 1.2-1.2 2.5-2.4 2.5-1.1 0-2.6-1.6-2.6-2.8.1-1 1.4-2.2 2.6-2.2"/></clipPath><clipPath id="m"><path d="m-393.5 263.5h1024v436h-1024z"/></clipPath><clipPath id="n"><circle cx="325.1" cy="579.7" r="7"/></clipPath><clipPath id="o"><path d="m-83.9 200.6h1024v436h-1024z"/></clipPath><clipPath id="p"><path d="m333.9 579.9c-.2 5.6-2.6 7.6-7 8.6-1.3.3-2.6.3-3.9.2-3.3-.3-6.2-3-6.8-6.2-.6-3.7 1.6-8.8 4.6-10.7 2.8-1.8 6.2-1.5 9.1.4 3 2.1 3.9 4.9 4 7.7m-2.7.3c.1-5.1-4.3-7.4-8.5-5.4-2.3 1.1-4 5.2-3.3 7.5.7 2.5 3.5 4.2 6 3.5 1.3-.4 2.5-1.2 3.7-1.8 1.7-.7 2.1-2 2.1-3.8"/></clipPath><clipPath id="q"><path d="m-83.9 200.6h1024v436h-1024z"/></clipPath><clipPath id="r"><path d="m324.7 577.7c1.3 0 2.4 1.1 2.4 2.5 0 1.2-1.2 2.5-2.4 2.5-1.1 0-2.6-1.6-2.6-2.8.1-1 1.4-2.2 2.6-2.2"/></clipPath><clipPath id="s"><path d="m-83.9 200.6h1024v436h-1024z"/></clipPath><clipPath id="t"><circle cx="485.1" cy="535.7" r="7"/></clipPath><clipPath id="u"><path d="m76.1 156.6h1024v436h-1024z"/></clipPath><clipPath id="v"><path d="m493.9 535.9c-.2 5.6-2.6 7.6-7 8.6-1.3.3-2.6.3-3.9.2-3.3-.3-6.2-3-6.8-6.2-.6-3.7 1.6-8.8 4.6-10.7 2.8-1.8 6.2-1.5 9.1.4 3 2.1 3.9 4.9 4 7.7m-2.7.3c.1-5.1-4.3-7.4-8.5-5.4-2.3 1.1-4 5.2-3.3 7.5.7 2.5 3.5 4.2 6 3.5 1.3-.4 2.5-1.2 3.7-1.8 1.7-.7 2.1-2 2.1-3.8"/></clipPath><clipPath id="w"><path d="m76.1 156.6h1024v436h-1024z"/></clipPath><clipPath id="x"><path d="m484.7 533.7c1.3 0 2.4 1.1 2.4 2.5 0 1.2-1.2 2.5-2.4 2.5-1.1 0-2.6-1.6-2.6-2.8.1-1 1.4-2.2 2.6-2.2"/></clipPath><clipPath id="y"><path d="m76.1 156.6h1024v436h-1024z"/></clipPath><clipPath id="z"><circle cx="637.1" cy="477.1" r="7"/></clipPath><clipPath id="A"><path d="m228.1 98h1024v436h-1024z"/></clipPath><clipPath id="B"><path d="m645.9 477.3c-.2 5.6-2.6 7.6-7 8.6-1.3.3-2.6.3-3.9.2-3.3-.3-6.2-3-6.8-6.2-.6-3.6 1.6-8.8 4.6-10.7 2.8-1.8 6.2-1.5 9.1.4 3 2.1 3.9 4.9 4 7.7m-2.7.3c.1-5.1-4.3-7.4-8.5-5.4-2.3 1.1-4 5.2-3.3 7.6.7 2.5 3.5 4.2 6 3.5 1.3-.4 2.5-1.2 3.7-1.8 1.7-.7 2.1-2.1 2.1-3.9"/></clipPath><clipPath id="C"><path d="m228.1 98h1024v436h-1024z"/></clipPath><clipPath id="D"><path d="m636.7 475.1c1.3 0 2.4 1.1 2.4 2.5 0 1.2-1.2 2.5-2.4 2.5-1.1 0-2.6-1.6-2.6-2.8.1-1 1.4-2.2 2.6-2.2"/></clipPath><clipPath id="E"><path d="m228.1 98h1024v436h-1024z"/></clipPath><clipPath id="F"><circle cx="801.1" cy="332.1" r="7"/></clipPath><clipPath id="G"><path d="m392.1-47h1024v436h-1024z"/></clipPath><clipPath id="H"><path d="m809.9 332.3c-.2 5.6-2.6 7.6-7 8.6-1.3.3-2.6.3-3.9.2-3.3-.3-6.2-3-6.8-6.2-.6-3.6 1.6-8.8 4.6-10.7 2.8-1.8 6.2-1.5 9.1.4 3 2.1 3.9 4.9 4 7.7m-2.7.3c.1-5.1-4.3-7.4-8.5-5.4-2.3 1.1-4 5.2-3.3 7.6.7 2.5 3.5 4.2 6 3.5 1.3-.4 2.5-1.2 3.7-1.8 1.7-.7 2.1-2.1 2.1-3.9"/></clipPath><clipPath id="I"><path d="m392.1-47h1024v436h-1024z"/></clipPath><clipPath id="J"><path d="m800.7 330.1c1.3 0 2.4 1.1 2.4 2.5 0 1.2-1.2 2.5-2.4 2.5-1.1 0-2.6-1.6-2.6-2.8.1-1 1.4-2.2 2.6-2.2"/></clipPath><clipPath id="K"><path d="m392.1-47h1024v436h-1024z"/></clipPath><clipPath id="L"><circle cx="1197.1" cy="29" r="7"/></clipPath><clipPath id="M"><path d="m788.1-350.1h1024v436h-1024z"/></clipPath><clipPath id="N"><path d="m1205.9 29.2c-.2 5.6-2.6 7.6-7 8.6-1.3.3-2.6.3-3.9.2-3.3-.3-6.2-3-6.8-6.2-.6-3.6 1.6-8.8 4.6-10.7 2.8-1.8 6.2-1.5 9.1.4 3 2.1 3.9 4.9 4 7.7m-2.7.3c.1-5.1-4.3-7.4-8.5-5.4-2.3 1.1-4 5.2-3.3 7.6.7 2.5 3.5 4.2 6 3.5 1.3-.4 2.5-1.2 3.7-1.8 1.7-.7 2.1-2.1 2.1-3.9"/></clipPath><clipPath id="O"><path d="m788.1-350.1h1024v436h-1024z"/></clipPath><clipPath id="P"><path d="m1196.7 27c1.3 0 2.4 1.1 2.4 2.5 0 1.2-1.2 2.5-2.4 2.5-1.1 0-2.6-1.6-2.6-2.8.1-1 1.4-2.2 2.6-2.2"/></clipPath><clipPath id="Q"><path d="m788.1-350.1h1024v436h-1024z"/></clipPath><clipPath id="R"><circle cx="964.1" cy="195.1" r="7"/></clipPath><clipPath id="S"><path d="m555.1-184h1024v436h-1024z"/></clipPath><clipPath id="T"><path d="m972.9 195.3c-.2 5.6-2.6 7.6-7 8.6-1.3.3-2.6.3-3.9.2-3.3-.3-6.2-3-6.8-6.2-.6-3.6 1.6-8.8 4.6-10.7 2.8-1.8 6.2-1.5 9.1.4 3 2.1 3.9 4.9 4 7.7m-2.7.3c.1-5.1-4.3-7.4-8.5-5.4-2.3 1.1-4 5.2-3.3 7.6.7 2.5 3.5 4.2 6 3.5 1.3-.4 2.5-1.2 3.7-1.8 1.7-.7 2.1-2.1 2.1-3.9"/></clipPath><clipPath id="U"><path d="m555.1-184h1024v436h-1024z"/></clipPath><clipPath id="V"><path d="m963.7 193.1c1.3 0 2.4 1.1 2.4 2.5 0 1.2-1.2 2.5-2.4 2.5-1.1 0-2.6-1.6-2.6-2.8.1-1 1.4-2.2 2.6-2.2"/></clipPath><clipPath id="W"><path d="m555.1-184h1024v436h-1024z"/></clipPath><clipPath id="X"><circle cx="1104.1" cy="73.1" r="7"/></clipPath><clipPath id="Y"><path d="m695.1-306h1024v436h-1024z"/></clipPath><clipPath id="Z"><path d="m1112.9 73.3c-.2 5.6-2.6 7.6-7 8.6-1.3.3-2.6.3-3.9.2-3.3-.3-6.2-3-6.8-6.2-.6-3.6 1.6-8.8 4.6-10.7 2.8-1.8 6.2-1.5 9.1.4 3 2.1 3.9 4.9 4 7.7m-2.7.3c.1-5.1-4.3-7.4-8.5-5.4-2.3 1.1-4 5.2-3.3 7.6.7 2.5 3.5 4.2 6 3.5 1.3-.4 2.5-1.2 3.7-1.8 1.7-.7 2.1-2.1 2.1-3.9"/></clipPath><clipPath id="aa"><path d="m695.1-306h1024v436h-1024z"/></clipPath><clipPath id="ab"><path d="m1103.7 71.1c1.3 0 2.4 1.1 2.4 2.5 0 1.2-1.2 2.5-2.4 2.5-1.1 0-2.6-1.6-2.6-2.8.1-1 1.4-2.2 2.6-2.2"/></clipPath><clipPath id="ac"><path d="m695.1-306h1024v436h-1024z"/></clipPath><path d="m1125 64.5c-13.7 7.4-29 15-40 23-7.3 5.3-24.7 16.6-32 22-20 15-31 20-36 25-6.9 6.9-23.2 22.8-30 31-14 17-16 20-27 35-3.2 4.4-16.1 26.3-20 30-11.4 10.9-17.5 11.2-29 22-9.6 9-19.4 10.9-29 20-6.2 5.8-13.9 8.1-20 14-4.9 4.8-14.1 8.2-19 13-10.1 9.8-16.8 11.3-27 21-1.2 1.2-16.7 13.9-19 16-12.9 11.8-24 21.7-31 28-3.6 3.2-17.4 11.8-20 16-.5.8-10.6 8.2-11 9-1.6 3.2-10.2 11.8-13 14-17 13-24 19-32 29-8.7 7.8-19.1 14.1-28 23-5 5-7 13-8.9 14-6.8 3.6-14.4 7.7-21.7 10.4-17.4 6.5-32.5 14.6-50.5 21.5-20.9 8-42.9 18.6-64.5 24.6-5.8 1.6-11.6 5.1-17.3 6.5-16.9 4.2-33.8 9.1-50.7 13.5-12.3 3.2-24.7 5.7-37 9.1-6.7 1.9-13 2.1-19.5 4.3-24.1 8.1-48.3 14-72.5 22.1-2 .7-3.9 1.3-5.9 2-13.9 4.7-27.7 7.4-41.6 12-11.9 3.9-24.1 8-36 12.1-13.3 4.6-25.1 6.8-38.6 10.7-15.7 4.6-32.4 12.7-48.7 15.2-1.4.2-2.8.4-4.2.6-12.6 1.6-25 4.5-37.5 6.3-8.4 1.2-17 1.7-25.5 2-22.5.8-45 3.4-67.5 4.1v1h1198v-623.5c-20 5.5-34.5 10-50 19.5-16.9 11-22.9 12-36.9 21z" fill="url(#a)"/><path d="m1212 24c-20 5.5-34.5 10-50 19.5-17 11-23 12-37 21-13.7 7.4-29 15-40 23-7.3 5.3-24.7 16.6-32 22-20 15-31 20-36 25-6.9 6.9-23.2 22.8-30 31-14 17-16 20-27 35-3.2 4.4-16.1 26.3-20 30-11.4 10.9-17.5 11.2-29 22-9.6 9-19.4 10.9-29 20-6.2 5.8-13.9 8.1-20 14-4.9 4.8-14.1 8.2-19 13-10.1 9.8-16.8 11.3-27 21-1.2 1.2-16.7 13.9-19 16-12.9 11.8-24 21.7-31 28-3.6 3.2-17.4 11.8-20 16-.5.8-10.6 8.2-11 9-1.6 3.2-10.2 11.8-13 14-17 13-24 19-32 29-8.7 7.8-19.1 14.1-28 23-5 5-7 13-8.9 14-6.8 3.6-14.4 7.7-21.7 10.4-17.4 6.5-32.5 14.6-50.5 21.5-20.9 8-42.9 18.6-64.5 24.6-5.8 1.6-11.6 5.1-17.3 6.5-16.9 4.2-33.8 9.1-50.7 13.5-12.3 3.2-24.7 5.7-37 9.1-6.7 1.9-13 2.1-19.5 4.3-24.1 8.1-48.3 14-72.5 22.1-2 .7-3.9 1.3-5.9 2-13.9 4.7-27.7 7.4-41.6 12-11.9 3.9-24.1 8-36 12.1-13.3 4.6-25.1 6.8-38.6 10.7-15.7 4.6-32.4 12.7-48.7 15.2-1.4.2-2.8.4-4.2.6-12.6 1.6-25 4.5-37.5 6.3-8.4 1.2-17 1.7-25.5 2-22.5.8-45 3.4-67.5 4.1v1" style="fill:none;stroke:#3cb371;stroke-width:2;stroke-linecap:round;stroke-linejoin:round;stroke-miterlimit:10"/><g clip-path="url(#b)"><path clip-path="url(#c)" d="m160.1 615.4h24v24h-24z" fill="#fff"/></g><g clip-path="url(#d)"><path clip-path="url(#e)" d="m158.1 613.4h27.8v28.1h-27.8z" fill="#3cb370"/></g><g clip-path="url(#f)"><path clip-path="url(#g)" d="m164.1 620.4h15v15h-15z" fill="#3cb370"/></g><g clip-path="url(#h)"><path clip-path="url(#i)" d="m3.5 630.6h24v24h-24z" fill="#fff"/></g><g clip-path="url(#j)"><path clip-path="url(#k)" d="m1.5 628.6h27.8v28.1h-27.8z" fill="#3cb370"/></g><g clip-path="url(#l)"><path clip-path="url(#m)" d="m7.5 635.6h15v15h-15z" fill="#3cb370"/></g><g clip-path="url(#n)"><path clip-path="url(#o)" d="m313.1 567.7h24v24h-24z" fill="#fff"/></g><g clip-path="url(#p)"><path clip-path="url(#q)" d="m311.1 565.7h27.8v28.1h-27.8z" fill="#3cb370"/></g><g clip-path="url(#r)"><path clip-path="url(#s)" d="m317.1 572.7h15v15h-15z" fill="#3cb370"/></g><g clip-path="url(#t)"><path clip-path="url(#u)" d="m473.1 523.7h24v24h-24z" fill="#fff"/></g><g clip-path="url(#v)"><path clip-path="url(#w)" d="m471.1 521.7h27.8v28.1h-27.8z" fill="#3cb370"/></g><g clip-path="url(#x)"><path clip-path="url(#y)" d="m477.1 528.7h15v15h-15z" fill="#3cb370"/></g><g clip-path="url(#z)"><path clip-path="url(#A)" d="m625.1 465.1h24v24h-24z" fill="#fff"/></g><g clip-path="url(#B)"><path clip-path="url(#C)" d="m623.1 463.1h27.8v28.1h-27.8z" fill="#3cb370"/></g><g clip-path="url(#D)"><path clip-path="url(#E)" d="m629.1 470.1h15v15h-15z" fill="#3cb370"/></g><g clip-path="url(#F)"><path clip-path="url(#G)" d="m789.1 320.1h24v24h-24z" fill="#fff"/></g><g clip-path="url(#H)"><path clip-path="url(#I)" d="m787.1 318.1h27.8v28.1h-27.8z" fill="#3cb370"/></g><g clip-path="url(#J)"><path clip-path="url(#K)" d="m793.1 325.1h15v15h-15z" fill="#3cb370"/></g><g clip-path="url(#L)"><path clip-path="url(#M)" d="m1185.1 17h24v24h-24z" fill="#fff"/></g><g clip-path="url(#N)"><path clip-path="url(#O)" d="m1183.1 15h27.8v28.1h-27.8z" fill="#3cb370"/></g><g clip-path="url(#P)"><path clip-path="url(#Q)" d="m1189.1 22h15v15h-15z" fill="#3cb370"/></g><g fill="#3cb371"><path d="m195.2 639.5v-1.9l3.7-3.7c.7-.7 1.1-1.2 1.1-2 0-.7-.5-1.2-1.4-1.2-1 0-1.9.4-2.9 1.1l-.3-2.3c.9-.6 2-1.1 3.6-1.1 2.2 0 3.6 1.2 3.6 3.1 0 1.5-.7 2.4-2.1 3.7l-2.2 2.1h4.1l.3 2.1h-7.5z"/><path d="m208.4 639.7c-2.7 0-4.5-2-4.5-5.6s1.8-5.6 4.5-5.6 4.5 2 4.5 5.6-1.8 5.6-4.5 5.6zm0-9.2c-1.2 0-1.9 1.3-1.9 3.6s.6 3.6 1.9 3.6c1.2 0 1.8-1.3 1.8-3.6s-.5-3.6-1.8-3.6z"/><path d="m218.6 639.7c-2.7 0-4.5-2-4.5-5.6s1.8-5.6 4.5-5.6 4.5 2 4.5 5.6-1.8 5.6-4.5 5.6zm0-9.2c-1.2 0-1.9 1.3-1.9 3.6s.6 3.6 1.9 3.6c1.2 0 1.8-1.3 1.8-3.6s-.6-3.6-1.8-3.6z"/><path d="m229.3 632.6c1.7 0 3.1 1.1 3.1 3.3 0 2.3-1.7 3.8-4 3.8-2.5 0-4.2-1.6-4.2-4.6 0-3.9 2.7-6 6.2-6.7l.3 2.1c-2 .5-3.6 1.3-4.1 2.8.9-.4 1.7-.7 2.7-.7zm-.9 5.2c.9 0 1.5-.6 1.5-1.7 0-1-.5-1.6-1.5-1.6-.6 0-1.2.2-1.8.6 0 1.9.8 2.7 1.8 2.7z"/><path d="m233.7 634.4v-2.7h2.6v2.7zm0 5.1v-2.7h2.6v2.7z"/><path d="m243.4 639.5v-9.3l-2.3.8-.2-1.2 2.6-1.2h1.2v10.9z"/><path d="m251.3 639.7c-2.5 0-4.1-2-4.1-5.6s1.7-5.6 4.1-5.6c2.5 0 4.1 2 4.1 5.6.1 3.6-1.6 5.6-4.1 5.6zm0-10c-1.7 0-2.7 1.5-2.7 4.4s1 4.4 2.7 4.4 2.7-1.5 2.7-4.4-1-4.4-2.7-4.4z"/><path d="m261.2 639.7c-2.5 0-4.1-2-4.1-5.6s1.7-5.6 4.1-5.6c2.5 0 4.1 2 4.1 5.6.1 3.6-1.6 5.6-4.1 5.6zm0-10c-1.7 0-2.7 1.5-2.7 4.4s1 4.4 2.7 4.4 2.7-1.5 2.7-4.4-1-4.4-2.7-4.4z"/><path d="m267.1 641.6-.8-.2.8-3.8h1.6z"/><path d="m273.1 635.5c-2.1 0-3.4-1.3-3.4-3.4s1.6-3.6 3.7-3.6c2.3 0 3.9 1.6 3.9 4.6 0 3.7-2.5 5.9-6 6.7l-.2-1.3c2.2-.5 4.1-1.6 4.6-3.8-.6.4-1.5.8-2.6.8zm2.9-2.4c0-2.1-1-3.4-2.5-3.4-1.3 0-2.2.8-2.2 2.3 0 1.4.7 2.2 2.2 2.2 1 0 1.8-.3 2.6-.9v-.2z"/><path d="m281.2 639.6-1.4-.3 4.1-9.3h-5.4l-.2-1.3h7.2v1.1z"/><path d="m292.2 637.1v2.4h-1.3v-2.4h-5.4v-1.1l5-7.3h1.7v7.2h1.7v1.2zm-1.3-6.8-3.9 5.6h3.9z"/><path d="m13.1 624.5v-1.9l3.7-3.7c.7-.7 1.1-1.2 1.1-2 0-.7-.5-1.2-1.4-1.2-1 0-1.9.4-2.9 1.1l-.3-2.3c.9-.6 2-1.1 3.6-1.1 2.2 0 3.6 1.2 3.6 3.1 0 1.5-.7 2.4-2.1 3.7l-2.2 2.1h4.1l.3 2.1h-7.5z"/><path d="m26.4 624.7c-2.7 0-4.5-2-4.5-5.6s1.8-5.6 4.5-5.6 4.5 2 4.5 5.6-1.8 5.6-4.5 5.6zm0-9.2c-1.2 0-1.9 1.3-1.9 3.6s.6 3.6 1.9 3.6c1.2 0 1.8-1.3 1.8-3.6s-.6-3.6-1.8-3.6z"/><path d="m36.5 624.7c-2.7 0-4.5-2-4.5-5.6s1.8-5.6 4.5-5.6 4.5 2 4.5 5.6-1.8 5.6-4.5 5.6zm0-9.2c-1.2 0-1.9 1.3-1.9 3.6s.6 3.6 1.9 3.6c1.2 0 1.8-1.3 1.8-3.6s-.5-3.6-1.8-3.6z"/><path d="m49.5 622.3v2.2h-2.5v-2.2h-5v-1.7l4.6-7h3v6.9h1.4v1.8zm-2.5-6.1-2.8 4.3h2.8z"/><path d="m52.2 619.4v-2.7h2.6v2.7zm0 5.1v-2.7h2.6v2.7z"/><path d="m66.4 622.1v2.4h-1.3v-2.4h-5.4v-1.1l5-7.3h1.7v7.2h1.7v1.2zm-1.3-6.8-3.9 5.6h3.9z"/><path d="m72.2 624.7c-1.3 0-2.2-.4-3-.8l.2-1.4c.8.5 1.7.9 2.8.9 1.5 0 2.6-.7 2.6-2.3 0-1.3-.8-2.1-2.3-2.1-.8 0-1.3.1-1.8.4l-1.1-.2.4-5.5h5.7l.3 1.3h-4.7l-.2 3.2c.4-.1 1-.3 1.7-.3 2.2 0 3.6 1.3 3.6 3.3-.1 2.3-1.9 3.5-4.2 3.5z"/><path d="m340.7 596.3v-1.9l3.7-3.7c.7-.7 1.1-1.2 1.1-2 0-.7-.5-1.2-1.4-1.2-1 0-1.9.4-2.9 1.1l-.3-2.3c.9-.6 2-1.1 3.6-1.1 2.2 0 3.6 1.2 3.6 3.1 0 1.5-.7 2.4-2.1 3.7l-2.2 2.1h4.1l.3 2.1h-7.5z"/><path d="m353.9 596.5c-2.7 0-4.5-2-4.5-5.6s1.8-5.6 4.5-5.6 4.5 2 4.5 5.6-1.8 5.6-4.5 5.6zm0-9.2c-1.2 0-1.9 1.3-1.9 3.6s.6 3.6 1.9 3.6c1.2 0 1.8-1.3 1.8-3.6s-.5-3.6-1.8-3.6z"/><path d="m364.1 596.5c-2.7 0-4.5-2-4.5-5.6s1.8-5.6 4.5-5.6 4.5 2 4.5 5.6-1.8 5.6-4.5 5.6zm0-9.2c-1.2 0-1.9 1.3-1.9 3.6s.6 3.6 1.9 3.6c1.2 0 1.8-1.3 1.8-3.6s-.6-3.6-1.8-3.6z"/><path d="m370.1 588.2c0-1.9 1.6-2.9 3.9-2.9s3.7 1.2 3.7 2.8c0 1-.6 1.9-1.6 2.5 1.3.6 2 1.4 2 2.8 0 1.9-1.6 3.2-4.1 3.2-2.7 0-4.1-1.4-4.1-3 0-1.2.7-2.1 1.9-2.8-1.1-.7-1.7-1.5-1.7-2.6zm2.1 5c0 .9.8 1.5 1.7 1.5s1.6-.5 1.6-1.3-.5-1.2-2.2-1.9c-.7.4-1.1 1-1.1 1.7zm3.1-5c0-.7-.6-1.2-1.5-1.2s-1.4.5-1.4 1.2.5 1.1 1.8 1.6c.7-.4 1.1-.9 1.1-1.6z"/><path d="m379.4 591.2v-2.7h2.6v2.7zm0 5.1v-2.7h2.6v2.7z"/><path d="m390 596.5c-1.1 0-2.3-.3-3.1-.8l.2-1.4c.9.6 1.8 1 2.9 1 1.4 0 2.3-.6 2.3-1.9s-.9-2.1-3-2.1h-.5l-.2-1.3h.8c1.8 0 2.6-.6 2.6-1.8 0-.9-.7-1.6-2-1.6-1.1 0-2.1.4-2.9 1l-.2-1.3c.8-.6 1.8-1 3.1-1 2.4 0 3.4 1.4 3.4 2.8 0 1.3-.8 2.1-2 2.5 1.4.4 2.2 1.2 2.2 2.7.3 1.9-1.2 3.2-3.6 3.2z"/><path d="m401.9 593.9v2.4h-1.3v-2.4h-5.4v-1.1l5-7.3h1.7v7.2h1.7v1.2zm-1.3-6.8-3.9 5.6h3.9z"/><path d="m404.7 596.3v-1.1l4-4.2c1-1 1.4-1.7 1.4-2.6 0-1.2-.7-1.8-2-1.8-1.1 0-2.1.5-2.9 1.3l-.2-1.4c.8-.7 1.9-1.2 3.2-1.2 2.1 0 3.4 1.2 3.4 3.1 0 1.3-.6 2.2-1.9 3.6l-3.1 3.1h5l.2 1.3h-7.1z"/><path d="m413.8 598.4-.8-.2.8-3.8h1.6z"/><path d="m417.3 588.1c0-1.6 1.4-2.8 3.5-2.8s3.4 1.2 3.4 2.7c0 1.2-.8 2-1.9 2.6 1.4.7 2.3 1.4 2.3 2.9 0 1.7-1.5 2.9-3.8 2.9-2.5 0-3.8-1.4-3.8-3 0-1.3.9-2.2 2.3-2.9-1.2-.4-2-1.1-2-2.4zm1 5.4c0 1.2 1 1.8 2.4 1.8s2.4-.7 2.4-1.8-.7-1.6-2.8-2.4c-1.2.6-2 1.4-2 2.4zm4.5-5.5c0-.9-.7-1.5-2-1.5s-2 .7-2 1.6c0 1 .7 1.4 2.4 2.1.9-.6 1.6-1.4 1.6-2.2z"/><path d="m426 596.3v-1.1l4-4.2c1-1 1.4-1.7 1.4-2.6 0-1.2-.7-1.8-2-1.8-1.1 0-2.1.5-2.9 1.3l-.2-1.4c.8-.7 1.9-1.2 3.2-1.2 2.1 0 3.4 1.2 3.4 3.1 0 1.3-.6 2.2-1.9 3.6l-3.1 3.1h5l.2 1.3h-7.1z"/><path d="m437.5 596.5c-1.3 0-2.2-.4-3-.8l.2-1.4c.8.5 1.7.9 2.8.9 1.5 0 2.6-.7 2.6-2.3 0-1.3-.8-2.1-2.3-2.1-.8 0-1.3.1-1.8.4l-1-.2.4-5.5h5.7l.2 1.3h-4.7l-.2 3.2c.4-.1 1-.3 1.7-.3 2.2 0 3.6 1.3 3.6 3.3-.1 2.3-1.9 3.5-4.2 3.5z"/><path d="m500.5 554.3v-1.9l3.7-3.7c.7-.7 1.1-1.2 1.1-2 0-.7-.5-1.2-1.4-1.2-1 0-1.9.4-2.9 1.1l-.3-2.3c.9-.6 2-1.1 3.6-1.1 2.2 0 3.6 1.2 3.6 3.1 0 1.5-.7 2.4-2.1 3.7l-2.2 2.1h4.1l.3 2.1h-7.5z"/><path d="m513.8 554.5c-2.7 0-4.5-2-4.5-5.6s1.8-5.6 4.5-5.6 4.5 2 4.5 5.6-1.8 5.6-4.5 5.6zm0-9.2c-1.2 0-1.9 1.3-1.9 3.6s.6 3.6 1.9 3.6c1.2 0 1.8-1.3 1.8-3.6s-.5-3.6-1.8-3.6z"/><path d="m521.5 554.3v-8.3l-2.2.8-.3-2.1 2.8-1.3h2.4v10.8h-2.7z"/><path d="m530.4 554.5c-2.7 0-4.5-2-4.5-5.6s1.8-5.6 4.5-5.6 4.5 2 4.5 5.6-1.8 5.6-4.5 5.6zm0-9.2c-1.2 0-1.9 1.3-1.9 3.6s.6 3.6 1.9 3.6c1.2 0 1.8-1.3 1.8-3.6s-.6-3.6-1.8-3.6z"/><path d="m536.3 549.2v-2.7h2.6v2.7zm0 5.1v-2.7h2.6v2.7z"/><path d="m546.9 554.5c-1.3 0-2.2-.4-3-.8l.2-1.4c.8.5 1.7.9 2.8.9 1.5 0 2.6-.7 2.6-2.3 0-1.3-.8-2.1-2.3-2.1-.8 0-1.3.1-1.8.4l-1.1-.2.4-5.5h5.7l.2 1.3h-4.7l-.2 3.2c.4-.1 1-.3 1.7-.3 2.2 0 3.6 1.3 3.6 3.3 0 2.3-1.8 3.5-4.1 3.5z"/><path d="m559 551.9v2.4h-1.3v-2.4h-5.4v-1.1l5-7.3h1.7v7.2h1.7v1.2zm-1.4-6.8-3.9 5.6h3.9z"/><path d="m568.4 551.9v2.4h-1.3v-2.4h-5.4v-1.1l5-7.3h1.7v7.2h1.7v1.2zm-1.3-6.8-3.9 5.6h3.9z"/><path d="m571.7 556.4-.8-.2.8-3.8h1.6z"/><path d="m579.1 547.7c2.1 0 3.4 1.3 3.4 3.3s-1.6 3.5-3.7 3.5c-2.3 0-3.9-1.6-3.9-4.6 0-3.7 2.4-5.8 5.9-6.7l.2 1.3c-2.2.6-4 1.7-4.5 4 .6-.5 1.5-.8 2.6-.8zm-.4 5.5c1.3 0 2.2-.8 2.2-2.2 0-1.3-.7-2.1-2.2-2.1-1 0-1.8.3-2.5.9 0 2.1 1 3.4 2.5 3.4z"/><path d="m588 554.5c-2.5 0-4.1-2-4.1-5.6s1.7-5.6 4.1-5.6c2.5 0 4.1 2 4.1 5.6s-1.7 5.6-4.1 5.6zm0-10c-1.7 0-2.7 1.5-2.7 4.4s1 4.4 2.7 4.4 2.7-1.5 2.7-4.4-1.1-4.4-2.7-4.4z"/><path d="m596.9 550.2c-2.1 0-3.4-1.3-3.4-3.4s1.6-3.6 3.7-3.6c2.3 0 3.9 1.6 3.9 4.6 0 3.7-2.5 5.9-6 6.7l-.2-1.3c2.2-.5 4.1-1.6 4.6-3.8-.7.5-1.6.8-2.6.8zm2.9-2.3c0-2.1-1-3.4-2.5-3.4-1.3 0-2.2.8-2.2 2.3 0 1.4.7 2.2 2.2 2.2 1 0 1.8-.3 2.6-.9v-.2z"/><path d="m651 497v-1.9l3.7-3.7c.7-.7 1.1-1.2 1.1-2 0-.7-.5-1.2-1.4-1.2-1 0-1.9.4-2.9 1.1l-.3-2.3c.9-.6 2-1.1 3.6-1.1 2.2 0 3.6 1.2 3.6 3.1 0 1.5-.7 2.4-2.1 3.7l-2.2 2.1h4.1l.3 2.1h-7.5z"/><path d="m664.3 497.2c-2.7 0-4.5-2-4.5-5.6s1.8-5.6 4.5-5.6 4.5 2 4.5 5.6-1.9 5.6-4.5 5.6zm0-9.2c-1.2 0-1.9 1.3-1.9 3.6s.6 3.6 1.9 3.6c1.2 0 1.8-1.3 1.8-3.6s-.6-3.6-1.8-3.6z"/><path d="m672 497v-8.3l-2.2.8-.3-2.1 2.8-1.3h2.4v10.9z"/><path d="m676.4 497v-1.9l3.7-3.7c.7-.7 1.1-1.2 1.1-2 0-.7-.5-1.2-1.4-1.2-1 0-1.9.4-2.9 1.1l-.3-2.3c.9-.6 2-1.1 3.6-1.1 2.2 0 3.6 1.2 3.6 3.1 0 1.5-.7 2.4-2.1 3.7l-2.2 2.1h4.1l.3 2.1h-7.5z"/><path d="m685.4 491.9v-2.7h2.6v2.7zm0 5.1v-2.7h2.6v2.7z"/><path d="m693.5 488.8c0-1.6 1.4-2.8 3.5-2.8s3.4 1.2 3.4 2.7c0 1.2-.8 2-1.9 2.6 1.4.7 2.3 1.4 2.3 2.9 0 1.7-1.5 2.9-3.8 2.9-2.5 0-3.8-1.4-3.8-3 0-1.3.9-2.2 2.3-2.9-1.3-.4-2-1.1-2-2.4zm1 5.4c0 1.2 1 1.8 2.4 1.8s2.4-.7 2.4-1.8-.7-1.6-2.8-2.4c-1.2.6-2 1.4-2 2.4zm4.4-5.5c0-.9-.7-1.5-2-1.5s-2 .7-2 1.6c0 1 .7 1.4 2.4 2.1 1-.6 1.6-1.3 1.6-2.2z"/><path d="m705.1 497.2c-1.3 0-2.2-.4-3-.8l.2-1.4c.8.5 1.7.9 2.8.9 1.5 0 2.6-.7 2.6-2.3 0-1.3-.8-2.1-2.3-2.1-.8 0-1.3.1-1.8.4l-1.1-.2.4-5.5h5.7l.2 1.3h-4.7l-.2 3.2c.4-.1 1-.3 1.7-.3 2.2 0 3.6 1.3 3.6 3.3 0 2.3-1.8 3.5-4.1 3.5z"/><path d="m713.5 497.2c-1.1 0-2.3-.3-3.1-.8l.2-1.4c.9.6 1.8 1 2.9 1 1.4 0 2.3-.6 2.3-1.9s-.9-2.1-3-2.1h-.5l-.2-1.3h.8c1.8 0 2.6-.6 2.6-1.8 0-.9-.7-1.6-2-1.6-1.1 0-2.1.4-2.9 1l-.2-1.3c.8-.6 1.8-1 3.1-1 2.4 0 3.4 1.4 3.4 2.8 0 1.3-.8 2.1-2 2.5 1.4.4 2.2 1.2 2.2 2.7.3 2-1.2 3.2-3.6 3.2z"/><path d="m719.3 499.2-.8-.2.8-3.8h1.6z"/><path d="m722.9 488.8c0-1.6 1.4-2.8 3.5-2.8s3.4 1.2 3.4 2.7c0 1.2-.8 2-1.9 2.6 1.4.7 2.3 1.4 2.3 2.9 0 1.7-1.5 2.9-3.8 2.9-2.5 0-3.8-1.4-3.8-3 0-1.3.9-2.2 2.3-2.9-1.3-.4-2-1.1-2-2.4zm1 5.4c0 1.2 1 1.8 2.4 1.8s2.4-.7 2.4-1.8-.7-1.6-2.8-2.4c-1.2.6-2 1.4-2 2.4zm4.4-5.5c0-.9-.7-1.5-2-1.5s-2 .7-2 1.6c0 1 .7 1.4 2.4 2.1.9-.6 1.6-1.3 1.6-2.2z"/><path d="m738.1 494.6v2.4h-1.3v-2.4h-5.4v-1.1l5-7.3h1.7v7.2h1.7v1.2zm-1.3-6.8-3.9 5.6h3.9z"/><path d="m743.9 497.2c-1.1 0-2.3-.3-3.1-.8l.2-1.4c.9.6 1.8 1 2.9 1 1.4 0 2.3-.6 2.3-1.9s-.9-2.1-3-2.1h-.5l-.2-1.3h.8c1.8 0 2.6-.6 2.6-1.8 0-.9-.7-1.6-2-1.6-1.1 0-2.1.4-2.9 1l-.2-1.3c.8-.6 1.8-1 3.1-1 2.4 0 3.4 1.4 3.4 2.8 0 1.3-.8 2.1-2 2.5 1.4.4 2.2 1.2 2.2 2.7.2 2-1.3 3.2-3.6 3.2z"/><path d="m816.2 346.9v-1.9l3.7-3.7c.7-.7 1.1-1.2 1.1-2 0-.7-.5-1.2-1.4-1.2-1 0-1.9.4-2.9 1.1l-.3-2.3c.9-.6 2-1.1 3.6-1.1 2.2 0 3.6 1.2 3.6 3.1 0 1.5-.7 2.4-2.1 3.7l-2.2 2.1h4.1l.3 2.1h-7.5z"/><path d="m829.5 347.1c-2.7 0-4.5-2-4.5-5.6s1.8-5.6 4.5-5.6 4.5 2 4.5 5.6-1.8 5.6-4.5 5.6zm0-9.2c-1.2 0-1.9 1.3-1.9 3.6s.6 3.6 1.9 3.6c1.2 0 1.8-1.3 1.8-3.6s-.6-3.6-1.8-3.6z"/><path d="m837.2 346.9v-8.3l-2.2.8-.3-2.1 2.8-1.3h2.4v10.8h-2.7z"/><path d="m848.9 344.7v2.2h-2.5v-2.2h-5v-1.7l4.6-7h3v6.9h1.5v1.8zm-2.5-6.1-2.8 4.3h2.8z"/><path d="m851.6 341.8v-2.7h2.6v2.7zm0 5.1v-2.7h2.6v2.7z"/><path d="m861.3 346.9v-9.3l-2.3.8-.2-1.2 2.6-1.2h1.2v10.9z"/><path d="m865.4 349-.8-.2.8-3.8h1.6z"/><path d="m871.5 347.1c-1.3 0-2.2-.4-3-.8l.2-1.4c.8.5 1.7.9 2.8.9 1.5 0 2.6-.7 2.6-2.3 0-1.3-.8-2.1-2.3-2.1-.8 0-1.3.1-1.8.4l-1.1-.2.4-5.5h5.7l.2 1.3h-4.7l-.2 3.2c.4-.1 1-.3 1.7-.3 2.2 0 3.6 1.3 3.6 3.3 0 2.3-1.8 3.5-4.1 3.5z"/><path d="m883.6 344.5v2.4h-1.3v-2.4h-5.4v-1.1l5-7.3h1.7v7.2h1.7v1.2zm-1.4-6.8-3.9 5.6h3.9z"/><path d="m893 344.5v2.4h-1.3v-2.4h-5.4v-1.1l5-7.3h1.7v7.2h1.7v1.2zm-1.3-6.8-3.9 5.6h3.9z"/><path d="m896.3 349-.8-.2.8-3.8h1.6z"/><path d="m905.6 344.5v2.4h-1.3v-2.4h-5.4v-1.1l5-7.3h1.7v7.2h1.7v1.2zm-1.3-6.8-3.9 5.6h3.9z"/><path d="m911.4 347.1c-1.3 0-2.2-.4-3-.8l.2-1.4c.8.5 1.7.9 2.8.9 1.5 0 2.6-.7 2.6-2.3 0-1.3-.8-2.1-2.3-2.1-.8 0-1.3.1-1.8.4l-1.1-.2.4-5.5h5.7l.2 1.3h-4.7l-.2 3.2c.4-.1 1-.3 1.7-.3 2.2 0 3.6 1.3 3.6 3.3 0 2.3-1.8 3.5-4.1 3.5z"/><path d="m921.2 340.3c2.1 0 3.4 1.3 3.4 3.3s-1.6 3.5-3.7 3.5c-2.3 0-3.9-1.6-3.9-4.6 0-3.7 2.4-5.8 5.9-6.7l.2 1.3c-2.2.6-4 1.7-4.5 4 .7-.5 1.6-.8 2.6-.8zm-.3 5.5c1.3 0 2.2-.8 2.2-2.2 0-1.3-.7-2.1-2.2-2.1-1 0-1.8.3-2.5.9 0 2.1 1 3.4 2.5 3.4z"/></g><g clip-path="url(#R)"><path clip-path="url(#S)" d="m952.1 183.1h24v24h-24z" fill="#fff"/></g><g clip-path="url(#T)"><path clip-path="url(#U)" d="m950.1 181.1h27.8v28.1h-27.8z" fill="#3cb370"/></g><g clip-path="url(#V)"><path clip-path="url(#W)" d="m956.1 188.1h15v15h-15z" fill="#3cb370"/></g><path d="m979.2 209.9v-1.9l3.7-3.7c.7-.7 1.1-1.2 1.1-2 0-.7-.5-1.2-1.4-1.2-1 0-1.9.4-2.9 1.1l-.3-2.3c.9-.6 2-1.1 3.6-1.1 2.2 0 3.6 1.2 3.6 3.1 0 1.5-.7 2.4-2.1 3.7l-2.2 2.1h4.1l.3 2.1h-7.5z" fill="#3cb371"/><path d="m992.5 210.1c-2.7 0-4.5-2-4.5-5.6s1.8-5.6 4.5-5.6 4.5 2 4.5 5.6-1.8 5.6-4.5 5.6zm0-9.2c-1.2 0-1.9 1.3-1.9 3.6s.6 3.6 1.9 3.6c1.2 0 1.8-1.3 1.8-3.6s-.6-3.6-1.8-3.6z" fill="#3cb371"/><path d="m1000.2 209.9v-8.3l-2.2.8-.3-2.1 2.8-1.3h2.4v10.8h-2.7z" fill="#3cb371"/><path d="m1009.6 203c1.7 0 3.1 1.1 3.1 3.3 0 2.3-1.7 3.8-4 3.8-2.5 0-4.2-1.6-4.2-4.6 0-3.9 2.7-6 6.2-6.7l.3 2.1c-2 .5-3.6 1.3-4.1 2.8.9-.4 1.7-.7 2.7-.7zm-.9 5.2c.9 0 1.5-.6 1.5-1.7 0-1-.5-1.6-1.5-1.6-.6 0-1.2.2-1.8.6 0 1.9.8 2.7 1.8 2.7z" fill="#3cb371"/><path d="m1014 204.8v-2.7h2.6v2.7zm0 5.1v-2.7h2.6v2.7z" fill="#3cb371"/><path d="m1021.7 209.9v-1.1l4-4.2c1-1 1.4-1.7 1.4-2.6 0-1.2-.7-1.8-2-1.8-1.1 0-2.1.5-2.9 1.3l-.2-1.4c.8-.7 1.9-1.2 3.2-1.2 2.1 0 3.4 1.2 3.4 3.1 0 1.3-.6 2.2-1.9 3.6l-3.1 3.1h5l.2 1.3h-7.1z" fill="#3cb371"/><path d="m1030.7 212-.8-.2.8-3.8h1.6z" fill="#3cb371"/><path d="m1035 209.9v-9.3l-2.3.8-.2-1.2 2.6-1.2h1.2v10.9z" fill="#3cb371"/><path d="m1039 201.7c0-1.6 1.4-2.8 3.5-2.8s3.4 1.2 3.4 2.7c0 1.2-.8 2-1.9 2.6 1.4.7 2.3 1.4 2.3 2.9 0 1.7-1.5 2.9-3.8 2.9-2.5 0-3.8-1.4-3.8-3 0-1.3.9-2.2 2.3-2.9-1.2-.4-2-1.1-2-2.4zm1.1 5.4c0 1.2 1 1.8 2.4 1.8s2.4-.7 2.4-1.8-.7-1.6-2.8-2.4c-1.2.6-2 1.4-2 2.4zm4.4-5.5c0-.9-.7-1.5-2-1.5s-2 .7-2 1.6c0 1 .7 1.4 2.4 2.1.9-.6 1.6-1.4 1.6-2.2z" fill="#3cb371"/><path d="m1048.1 201.7c0-1.6 1.4-2.8 3.5-2.8s3.4 1.2 3.4 2.7c0 1.2-.8 2-1.9 2.6 1.4.7 2.3 1.4 2.3 2.9 0 1.7-1.5 2.9-3.8 2.9-2.5 0-3.8-1.4-3.8-3 0-1.3.9-2.2 2.3-2.9-1.2-.4-2-1.1-2-2.4zm1.1 5.4c0 1.2 1 1.8 2.4 1.8s2.4-.7 2.4-1.8-.7-1.6-2.8-2.4c-1.2.6-2 1.4-2 2.4zm4.4-5.5c0-.9-.7-1.5-2-1.5s-2 .7-2 1.6c0 1 .7 1.4 2.4 2.1.9-.6 1.6-1.4 1.6-2.2z" fill="#3cb371"/><path d="m1057.3 212-.8-.2.8-3.8h1.6z" fill="#3cb371"/><path d="m1062.8 210-1.4-.3 4.1-9.3h-5.4l-.2-1.3h7.2v1.1z" fill="#3cb371"/><path d="m1071.2 210.1c-1.3 0-2.2-.4-3-.8l.2-1.4c.8.5 1.7.9 2.8.9 1.5 0 2.6-.7 2.6-2.3 0-1.3-.8-2.1-2.3-2.1-.8 0-1.3.1-1.8.4l-1.1-.2.4-5.5h5.7l.2 1.3h-4.7l-.2 3.2c.4-.1 1-.3 1.7-.3 2.2 0 3.6 1.3 3.6 3.3 0 2.3-1.8 3.5-4.1 3.5z" fill="#3cb371"/><path d="m1076.7 209.9v-1.1l4-4.2c1-1 1.4-1.7 1.4-2.6 0-1.2-.7-1.8-2-1.8-1.1 0-2.1.5-2.9 1.3l-.2-1.4c.8-.7 1.9-1.2 3.2-1.2 2.1 0 3.4 1.2 3.4 3.1 0 1.3-.6 2.2-1.9 3.6l-3.1 3.1h5l.2 1.3h-7.1z" fill="#3cb371"/><g clip-path="url(#X)"><path clip-path="url(#Y)" d="m1092.1 61.1h24v24h-24z" fill="#fff"/></g><g clip-path="url(#Z)"><path clip-path="url(#aa)" d="m1090.1 59.1h27.8v28.1h-27.8z" fill="#3cb370"/></g><g clip-path="url(#ab)"><path clip-path="url(#ac)" d="m1096.1 66.1h15v15h-15z" fill="#3cb370"/></g><path d="m1089.2 105.9v-1.9l3.7-3.7c.7-.7 1.1-1.2 1.1-2 0-.7-.5-1.2-1.4-1.2-1 0-1.9.4-2.9 1.1l-.3-2.3c.9-.6 2-1.1 3.6-1.1 2.2 0 3.6 1.2 3.6 3.1 0 1.5-.7 2.4-2.1 3.7l-2.2 2.1h4.1l.3 2.1h-7.5z" fill="#3cb371"/><path d="m1102.5 106.1c-2.7 0-4.5-2-4.5-5.6s1.8-5.6 4.5-5.6 4.5 2 4.5 5.6-1.8 5.6-4.5 5.6zm0-9.2c-1.2 0-1.9 1.3-1.9 3.6s.6 3.6 1.9 3.6c1.2 0 1.8-1.3 1.8-3.6s-.6-3.6-1.8-3.6z" fill="#3cb371"/><path d="m1110.2 105.9v-8.3l-2.2.8-.3-2.1 2.8-1.3h2.4v10.8h-2.7z" fill="#3cb371"/><path d="m1114.9 97.8c0-1.9 1.6-2.9 3.9-2.9s3.7 1.2 3.7 2.8c0 1-.6 1.9-1.6 2.5 1.3.6 2 1.4 2 2.8 0 1.9-1.6 3.2-4.1 3.2-2.7 0-4.1-1.4-4.1-3 0-1.2.7-2.1 1.9-2.8-1.2-.7-1.7-1.5-1.7-2.6zm2.1 5c0 .9.8 1.5 1.7 1.5s1.6-.5 1.6-1.3-.5-1.2-2.2-1.9c-.7.4-1.1 1-1.1 1.7zm3.1-5c0-.7-.6-1.2-1.5-1.2s-1.4.5-1.4 1.2.5 1.1 1.8 1.6c.7-.4 1.1-.9 1.1-1.6z" fill="#3cb371"/><path d="m1124.2 100.8v-2.7h2.6v2.7zm0 5.1v-2.7h2.6v2.7z" fill="#3cb371"/><path d="m1131.9 105.9v-1.1l4-4.2c1-1 1.4-1.7 1.4-2.6 0-1.2-.7-1.8-2-1.8-1.1 0-2.1.5-2.9 1.3l-.2-1.4c.8-.7 1.9-1.2 3.2-1.2 2.1 0 3.4 1.2 3.4 3.1 0 1.3-.6 2.2-1.9 3.6l-3.1 3.1h5l.2 1.3h-7.1z" fill="#3cb371"/><path d="m1140.9 108-.8-.2.8-3.8h1.6z" fill="#3cb371"/><path d="m1144.5 97.7c0-1.6 1.4-2.8 3.5-2.8s3.4 1.2 3.4 2.7c0 1.2-.8 2-1.9 2.6 1.4.7 2.3 1.4 2.3 2.9 0 1.7-1.5 2.9-3.8 2.9-2.5 0-3.8-1.4-3.8-3 0-1.3.9-2.2 2.3-2.9-1.3-.4-2-1.1-2-2.4zm1 5.4c0 1.2 1 1.8 2.4 1.8s2.4-.7 2.4-1.8-.7-1.6-2.8-2.4c-1.2.6-2 1.4-2 2.4zm4.4-5.5c0-.9-.7-1.5-2-1.5s-2 .7-2 1.6c0 1 .7 1.4 2.4 2.1 1-.6 1.6-1.4 1.6-2.2z" fill="#3cb371"/><path d="m1156.1 106.1c-1.1 0-2.3-.3-3.1-.8l.2-1.4c.9.6 1.8 1 2.9 1 1.4 0 2.3-.6 2.3-1.9s-.9-2.1-3-2.1h-.5l-.2-1.3h.8c1.8 0 2.6-.6 2.6-1.8 0-.9-.7-1.6-2-1.6-1.1 0-2.1.4-2.9 1l-.2-1.3c.8-.6 1.8-1 3.1-1 2.4 0 3.4 1.4 3.4 2.8 0 1.3-.8 2.1-2 2.5 1.4.4 2.2 1.2 2.2 2.7.2 1.9-1.3 3.2-3.6 3.2z" fill="#3cb371"/><path d="m1161.8 97.7c0-1.6 1.4-2.8 3.5-2.8s3.4 1.2 3.4 2.7c0 1.2-.8 2-1.9 2.6 1.4.7 2.3 1.4 2.3 2.9 0 1.7-1.5 2.9-3.8 2.9-2.5 0-3.8-1.4-3.8-3 0-1.3.9-2.2 2.3-2.9-1.3-.4-2-1.1-2-2.4zm1 5.4c0 1.2 1 1.8 2.4 1.8s2.4-.7 2.4-1.8-.7-1.6-2.8-2.4c-1.2.6-2 1.4-2 2.4zm4.4-5.5c0-.9-.7-1.5-2-1.5s-2 .7-2 1.6c0 1 .7 1.4 2.4 2.1 1-.6 1.6-1.4 1.6-2.2z" fill="#3cb371"/><path d="m1171 108-.8-.2.8-3.8h1.6z" fill="#3cb371"/><path d="m1178 106.1c-2.5 0-4.1-2-4.1-5.6s1.7-5.6 4.1-5.6c2.5 0 4.1 2 4.1 5.6.1 3.6-1.6 5.6-4.1 5.6zm0-10c-1.7 0-2.7 1.5-2.7 4.4s1 4.4 2.7 4.4 2.7-1.5 2.7-4.4-1-4.4-2.7-4.4z" fill="#3cb371"/><path d="m1190.3 103.5v2.4h-1.3v-2.4h-5.4v-1.1l5-7.3h1.7v7.2h1.7v1.2zm-1.3-6.8-3.9 5.6h3.9z" fill="#3cb371"/><path d="m1197.5 99.3c2.1 0 3.4 1.3 3.4 3.3s-1.6 3.5-3.7 3.5c-2.3 0-3.9-1.6-3.9-4.6 0-3.7 2.4-5.8 5.9-6.7l.2 1.3c-2.2.6-4 1.7-4.5 4 .6-.5 1.5-.8 2.6-.8zm-.4 5.5c1.3 0 2.2-.8 2.2-2.2 0-1.3-.7-2.1-2.2-2.1-1 0-1.8.3-2.5.9 0 2.1 1 3.4 2.5 3.4z" fill="#3cb371"/><path d="m942 27.8v-1.9l3.7-3.7c.7-.7 1.1-1.2 1.1-2 0-.7-.5-1.2-1.4-1.2-1 0-1.9.4-2.9 1.1l-.3-2.3c.9-.6 2-1.1 3.6-1.1 2.2 0 3.6 1.2 3.6 3.1 0 1.5-.7 2.4-2.1 3.7l-2.2 2.1h4.1l.3 2.1h-7.5z" fill="#3cb371"/><path d="m955.3 28c-2.7 0-4.5-2-4.5-5.6s1.8-5.6 4.5-5.6 4.5 2 4.5 5.6-1.8 5.6-4.5 5.6zm0-9.2c-1.2 0-1.9 1.3-1.9 3.6s.6 3.6 1.9 3.6c1.2 0 1.8-1.3 1.8-3.6s-.6-3.6-1.8-3.6z" fill="#3cb371"/><path d="m963 27.8v-8.3l-2.2.8-.3-2.1 2.8-1.3h2.4v10.8h-2.7z" fill="#3cb371"/><path d="m970.4 24c-1.8 0-3.1-1.1-3.1-3.3 0-2.4 1.7-3.9 4-3.9 2.5 0 4.2 1.6 4.2 4.6 0 3.9-2.7 6-6.4 6.7l-.3-2.1c2.1-.4 3.6-1.2 4.2-2.7-.9.4-1.7.7-2.6.7zm2.6-2.5c0-1.9-.8-2.8-1.8-2.8-.9 0-1.5.6-1.5 1.8 0 1.1.5 1.6 1.5 1.6.7 0 1.2-.2 1.8-.6z" fill="#3cb371"/><path d="m976.8 22.7v-2.7h2.6v2.7zm0 5.1v-2.7h2.6v2.7z" fill="#3cb371"/><path d="m987.4 28c-1.1 0-2.3-.3-3.1-.8l.2-1.4c.9.6 1.8 1 2.9 1 1.4 0 2.3-.6 2.3-1.9s-.9-2.1-3-2.1h-.5l-.2-1.3h.8c1.8 0 2.6-.6 2.6-1.8 0-.9-.7-1.6-2-1.6-1.1 0-2.1.4-2.9 1l-.2-1.3c.8-.6 1.8-1 3.1-1 2.4 0 3.4 1.4 3.4 2.8 0 1.3-.8 2.1-2 2.5 1.4.4 2.2 1.2 2.2 2.7.3 2-1.2 3.2-3.6 3.2z" fill="#3cb371"/><path d="m993.2 30-.8-.2.8-3.8h1.6z" fill="#3cb371"/><path d="m1000.3 28c-2.5 0-4.1-2-4.1-5.6s1.7-5.6 4.1-5.6c2.5 0 4.1 2 4.1 5.6s-1.6 5.6-4.1 5.6zm0-9.9c-1.7 0-2.7 1.5-2.7 4.4s1 4.4 2.7 4.4 2.7-1.5 2.7-4.4-1-4.4-2.7-4.4z" fill="#3cb371"/><path d="m1005.8 27.8v-1.1l4-4.2c1-1 1.4-1.7 1.4-2.6 0-1.2-.7-1.8-2-1.8-1.1 0-2.1.5-2.9 1.3l-.2-1.4c.8-.7 1.9-1.2 3.2-1.2 2.1 0 3.4 1.2 3.4 3.1 0 1.3-.6 2.2-1.9 3.6l-3.1 3.1h5l.2 1.3h-7.1z" fill="#3cb371"/><path d="m1014.8 19.6c0-1.6 1.4-2.8 3.5-2.8s3.4 1.2 3.4 2.7c0 1.2-.8 2-1.9 2.6 1.4.7 2.3 1.4 2.3 2.9 0 1.7-1.5 2.9-3.8 2.9-2.5 0-3.8-1.4-3.8-3 0-1.3.9-2.2 2.3-2.9-1.3-.4-2-1.1-2-2.4zm1 5.4c0 1.2 1 1.8 2.4 1.8s2.4-.7 2.4-1.8-.7-1.6-2.8-2.4c-1.2.6-2 1.4-2 2.4zm4.4-5.5c0-.9-.7-1.5-2-1.5s-2 .7-2 1.6c0 1 .7 1.4 2.4 2.1 1-.6 1.6-1.3 1.6-2.2z" fill="#3cb371"/><path d="m1023.9 30-.8-.2.8-3.8h1.6z" fill="#3cb371"/><path d="m1030.1 28c-1.3 0-2.2-.4-3-.8l.2-1.4c.8.5 1.7.9 2.8.9 1.5 0 2.6-.7 2.6-2.3 0-1.3-.8-2.1-2.3-2.1-.8 0-1.3.1-1.8.4l-1.1-.2.4-5.5h5.7l.2 1.3h-4.7l-.2 3.2c.4-.1 1-.3 1.7-.3 2.2 0 3.6 1.3 3.6 3.3-.1 2.3-1.9 3.5-4.1 3.5z" fill="#3cb371"/><path d="m1037.5 27.8v-9.3l-2.3.8-.2-1.2 2.6-1.2h1.2v10.9z" fill="#3cb371"/><path d="m1044.4 23.8c-2.1 0-3.4-1.3-3.4-3.4s1.6-3.6 3.7-3.6c2.3 0 3.9 1.6 3.9 4.6 0 3.7-2.5 5.9-6 6.7l-.2-1.3c2.2-.5 4.1-1.6 4.6-3.8-.7.5-1.6.8-2.6.8zm2.9-2.3c0-2.1-1-3.4-2.5-3.4-1.3 0-2.2.8-2.2 2.3 0 1.4.7 2.2 2.2 2.2 1 0 1.8-.3 2.6-.9v-.2z" fill="#3cb371"/><path d="m1058.7 27.8-.2-1c-.6.6-1.4 1.2-2.7 1.2-1.4 0-2.2-.8-2.2-2.1 0-1.9 1.6-2.7 4.8-3v-.3c0-1-.6-1.3-1.5-1.3s-1.8.3-2.6.7l-.2-1.2c.9-.4 1.8-.6 3-.6 1.9 0 2.8.8 2.8 2.4v5.3h-1.2zm-.3-3.8c-2.8.3-3.4 1-3.4 1.8 0 .6.4 1 1.1 1 .8 0 1.6-.4 2.3-1.1z" fill="#3cb371"/><path d="m1065.2 28c-2 0-3.6-1.4-3.6-4s1.6-4 3.6-4c1.1 0 1.9.3 2.5.7l-.2 1.4c-.7-.6-1.4-.8-2.3-.8-1.2 0-2.1.9-2.1 2.7 0 1.9.9 2.7 2.3 2.7.8 0 1.4-.2 2.2-.8l.2 1.3c-.8.6-1.6.8-2.6.8z" fill="#3cb371"/><path d="m1072.5 28c-2 0-3.6-1.4-3.6-4s1.6-4 3.6-4c1.1 0 1.9.3 2.5.7l-.2 1.4c-.7-.6-1.4-.8-2.3-.8-1.2 0-2.1.9-2.1 2.7 0 1.9.9 2.7 2.3 2.7.8 0 1.4-.2 2.2-.8l.2 1.3c-.7.6-1.5.8-2.6.8z" fill="#3cb371"/><path d="m1079.9 28c-2 0-3.5-1.5-3.5-4s1.5-4 3.5-4 3.6 1.5 3.6 4-1.6 4-3.6 4zm0-6.8c-1.4 0-2.1 1.2-2.1 2.8s.7 2.8 2.1 2.8 2.1-1.2 2.1-2.8c0-1.5-.8-2.8-2.1-2.8z" fill="#3cb371"/><path d="m1090.3 27.8-.2-1.1c-.7.7-1.6 1.3-2.7 1.3-1.5 0-2.2-.9-2.2-2.2v-5.6h1.4v5.2c0 .8.3 1.3 1.2 1.3.8 0 1.5-.5 2.2-1.2v-5.3h1.4v7.6z" fill="#3cb371"/><path d="m1098.5 27.8v-5.2c0-.8-.3-1.3-1.2-1.3-.8 0-1.5.5-2.2 1.2v5.3h-1.4v-7.6h1.1l.2 1.1c.7-.7 1.6-1.3 2.7-1.3 1.4 0 2.2.9 2.2 2.2v5.6z" fill="#3cb371"/><path d="m1104.7 28c-1.3 0-2.2-.5-2.2-2v-4.5h-1.2v-1.2h1.2v-2.5l1.4-.2v2.8h1.6l.2 1.2h-1.8v4.3c0 .6.3 1 1.1 1h.7l.2 1.2c-.4-.2-.7-.1-1.2-.1z" fill="#3cb371"/><path d="m1109.8 28c-1 0-2.1-.4-2.8-.7l.2-1.3c.7.5 1.6.9 2.7.9 1 0 1.6-.4 1.6-1 0-.7-.4-1-1.8-1.3-1.8-.4-2.5-1-2.5-2.4 0-1.2 1-2.1 2.7-2.1.9 0 1.8.2 2.5.5l-.2 1.3c-.7-.4-1.5-.7-2.3-.7-.9 0-1.3.3-1.3.9 0 .5.4.8 1.6 1.1 1.9.5 2.7 1 2.7 2.5-.1 1.4-1.1 2.3-3.1 2.3z" fill="#3cb371"/><path d="m1120.4 28c-1 0-2.1-.4-2.8-.7l.2-1.3c.7.5 1.6.9 2.7.9 1 0 1.6-.4 1.6-1 0-.7-.4-1-1.8-1.3-1.8-.4-2.5-1-2.5-2.4 0-1.2 1-2.1 2.7-2.1.9 0 1.8.2 2.5.5l-.2 1.3c-.7-.4-1.5-.7-2.3-.7-.9 0-1.3.3-1.3.9 0 .5.4.8 1.6 1.1 1.9.5 2.7 1 2.7 2.5-.1 1.4-1.1 2.3-3.1 2.3z" fill="#3cb371"/><path d="m1126 18.7c-.5 0-.9-.4-.9-.9s.4-.9.9-.9.9.4.9.9-.4.9-.9.9zm-.7 9.1v-7.6h1.4v7.6z" fill="#3cb371"/><path d="m1135.5 20.1.2 1.3-1.5.1c.2.4.3.8.3 1.2 0 1.6-1.4 2.6-2.9 2.6-.2 0-.4 0-.6 0-.2.1-.4.3-.4.5 0 .3.3.3 1.6.6l.5.1c1.6.3 2.6.8 2.6 2 0 1.6-1.7 2.4-3.7 2.4s-3.6-.6-3.6-2c0-.8.5-1.4 1.6-2-.3-.2-.5-.5-.5-.8 0-.4.3-.7.8-1-.8-.4-1.4-1.2-1.4-2.3 0-1.6 1.4-2.7 2.9-2.7.8 0 1.4.2 2 .6zm-6 8.6c0 .6.8 1.1 2.3 1.1s2.3-.5 2.3-1.2c0-.5-.4-.8-1.4-1l-.9-.2c-.4-.1-.6-.1-.9-.2-1 .5-1.4.9-1.4 1.5zm2.1-7.6c-1 0-1.6.7-1.6 1.7 0 .9.6 1.6 1.6 1.6s1.6-.7 1.6-1.6-.6-1.7-1.6-1.7z" fill="#3cb371"/><path d="m1141.9 27.8v-5.2c0-.8-.3-1.3-1.2-1.3-.8 0-1.5.5-2.2 1.2v5.3h-1.4v-7.6h1.1l.2 1.1c.7-.7 1.6-1.3 2.7-1.3 1.4 0 2.2.9 2.2 2.2v5.6z" fill="#3cb371"/><path d="m1151.7 24.2h-5.2c0 1.8.9 2.6 2.2 2.6 1.1 0 1.9-.4 2.7-1.1l.2 1.3c-.8.6-1.8 1-3.1 1-2 0-3.5-1.2-3.5-4 0-2.4 1.4-4 3.4-4 2.2 0 3.2 1.7 3.2 3.8.1.1.1.3.1.4zm-3.3-3c-.9 0-1.6.6-1.9 1.9h3.7c-.1-1.2-.7-1.9-1.8-1.9z" fill="#3cb371"/><path d="m1158.7 27.8-.2-1.1c-.6.7-1.4 1.3-2.5 1.3-1.6 0-3-1.2-3-3.8 0-2.8 1.6-4.1 3.5-4.1.8 0 1.4.1 1.9.3v-3.9l1.4-.2v11.6h-1.1zm-.2-6.1c-.6-.3-1.1-.4-1.9-.4-1.2 0-2.1 1-2.1 2.9 0 1.7.8 2.6 1.8 2.6.9 0 1.6-.5 2.2-1.3z" fill="#3cb371"/><path d="m1170.7 27.8-.2-1.1c-.7.7-1.6 1.3-2.7 1.3-1.5 0-2.2-.9-2.2-2.2v-5.6h1.4v5.2c0 .8.3 1.3 1.2 1.3.8 0 1.5-.5 2.2-1.2v-5.3h1.4v7.6z" fill="#3cb371"/><path d="m1177.4 27.9c-.8 0-1.4-.1-1.9-.3v3l-1.4.2v-10.6h1.1l.2 1.1c.6-.7 1.4-1.3 2.5-1.3 1.6 0 3 1.2 3 3.8 0 2.8-1.6 4.1-3.5 4.1zm.2-6.6c-.9 0-1.5.5-2.1 1.3v3.7c.6.3 1 .4 1.9.4 1.2 0 2.1-1 2.1-2.9-.1-1.6-.8-2.5-1.9-2.5z" fill="#3cb371"/></svg>